<svg height="512pt" viewBox="-162 0 512 512.00134" width="512pt" xmlns="http://www.w3.org/2000/svg"><path d="m175.339844 359.164062-49.242188-8.203124 45.640625-148.121094c7.789063-17.609375-5.125-37.464844-24.394531-37.464844h-79.476562l57.222656-127.792969c6.023437-13.445312.003906-29.226562-13.441406-35.246093-13.449219-6.019532-29.226563 0-35.246094 13.445312l-74.046875 165.367188c-7.894531 17.628906 5.03125 37.574218 24.34375 37.574218h79.675781l-33.207031 123.417969-52.9375-8.824219c-12.019531-2-21.699219 9.757813-17.425781 21.171875l55.164062 147.234375c4.273438 11.410156 19.296875 13.914063 27.042969 4.507813l99.945312-121.386719c7.746094-9.410156 2.402344-23.675781-9.617187-25.679688zm0 0"/></svg>